<svg xmlns="http://www.w3.org/2000/svg" viewBox="0 0 852 308" font-family="-apple-system, BlinkMacSystemFont, 'Segoe UI', system-ui, sans-serif">
<rect width="852" height="308" fill="#ffffff"/>
<style>.t{font-size:15px;font-weight:700;fill:#111}.n{font-size:13px;font-weight:700;fill:#222}.p{font-size:11.5px;font-weight:600;fill:#2891c4}</style>
<defs>
<linearGradient id="bg0" x1="0" y1="0" x2="0" y2="1"><stop offset="0" stop-color="#5A4230"/><stop offset="1" stop-color="#33251A"/></linearGradient>
<clipPath id="cp0"><rect x="24" y="56" width="256" height="206" rx="16"/></clipPath>
<linearGradient id="bg1" x1="0" y1="0" x2="0" y2="1"><stop offset="0" stop-color="#7BC078"/><stop offset="1" stop-color="#2F6B3A"/></linearGradient>
<clipPath id="cp1"><rect x="298" y="56" width="256" height="206" rx="16"/></clipPath>
<linearGradient id="bg2" x1="0" y1="0" x2="0" y2="1"><stop offset="0" stop-color="#4B3A9E"/><stop offset="1" stop-color="#1B1244"/></linearGradient>
<clipPath id="cp2"><rect x="572" y="56" width="256" height="206" rx="16"/></clipPath>
</defs>
<text class="t" x="426" y="30" text-anchor="middle">둥지 꾸미기: 테마 8종에 소품을 드래그앤드롭으로 배치</text>
<g clip-path="url(#cp0)"><rect x="24" y="56" width="256" height="206" fill="url(#bg0)"/>
<path d="M24,56 L280,56 L280,94 Q152.0,62 24,98 Z" fill="#241A13" opacity=".5"/>
<path d="M24,238 Q152.0,222 280,238 L280,262 L24,262 Z" fill="#000" opacity=".22"/>
<g transform="translate(64,206) scale(0.8)" stroke-linejoin="round" stroke-linecap="round"><path d="M-9,10 L-15,-9.0 L-9,-18 L-3,-9.0 Z" fill="#8FD8FF" stroke="#2E86C4" stroke-width="2.4"/><path d="M4,10 L-2,-14.0 L4,-28 L10,-14.0 Z" fill="#B9ECFF" stroke="#2E86C4" stroke-width="2.4"/><path d="M14,10 L8,-7.0 L14,-14 L20,-7.0 Z" fill="#8FD8FF" stroke="#2E86C4" stroke-width="2.4"/></g>
<g transform="translate(80,226) scale(0.95)" stroke-linejoin="round" stroke-linecap="round"><path d="M-20,10 Q-24,-6 -8,-13 Q6,-18 17,-7 Q24,2 19,10 Z" fill="#A8A8A8" stroke="#6F6F6F" stroke-width="2.6"/><path d="M-14,-6 q7,-5 14,-2 q-4,5 -14,2 Z" fill="#7BC46A"/></g>
<ellipse cx="152.0" cy="206" rx="66" ry="13" fill="#8A5C2E"/>
<g transform="translate(106.0,114) scale(0.92)"><g stroke="#D9561F" stroke-width="3.2" stroke-linejoin="round" stroke-linecap="round"><path transform="translate(50,56) scale(-1,1)" d="M14,4 Q22,-22 44,-16 Q40,-6 45,2 Q36,0 32,8 Q24,4 14,4 Z" fill="#FF6B35" opacity=".9"/><path transform="translate(50,56) scale(1,1)" d="M14,4 Q22,-22 44,-16 Q40,-6 45,2 Q36,0 32,8 Q24,4 14,4 Z" fill="#FF6B35" opacity=".9"/><path d="M66 86 Q86 86 90 70 Q91 64 86 62" fill="none"/><path transform="translate(86,62)" d="M0,0 l8,-7 l2,11 z" fill="#FF6B35"/><ellipse cx="38" cy="95" rx="10" ry="6.5" fill="#FF9A62"/><ellipse cx="62" cy="95" rx="10" ry="6.5" fill="#FF9A62"/><ellipse cx="50" cy="75" rx="25" ry="22" fill="#FF9A62"/><ellipse cx="50" cy="79" rx="16" ry="14" fill="#FFE3CE" stroke-width="2.2"/><ellipse cx="27" cy="74" rx="8" ry="7" fill="#FF9A62"/><ellipse cx="73" cy="74" rx="8" ry="7" fill="#FF9A62"/><path d="M37 19 q-3 -10 4 -12 q1 7 4 10 z" fill="#FF9A62"/><path d="M63 19 q3 -10 -4 -12 q-1 7 -4 10 z" fill="#FF9A62"/><circle cx="50" cy="40" r="26" fill="#FF9A62"/><path d="M34 17 l5 -12 l6 8 l5 -13 l5 13 l6 -8 l5 12 z" fill="#FFD34E" stroke="#C9910F" stroke-width="2.6"/><g stroke="none"><ellipse cx="41" cy="41" rx="4" ry="4.5" fill="#2B2B2B"/><circle cx="39.6" cy="39.2" r="1.5" fill="#fff"/><ellipse cx="59" cy="41" rx="4" ry="4.5" fill="#2B2B2B"/><circle cx="57.6" cy="39.2" r="1.5" fill="#fff"/><ellipse cx="32" cy="49" rx="5" ry="3" fill="#FF6B35" opacity=".42"/><ellipse cx="68" cy="49" rx="5" ry="3" fill="#FF6B35" opacity=".42"/></g><path d="M45 51 q5 5 10 0" fill="none" stroke="#2B2B2B" stroke-width="2.4"/></g></g>
<g stroke="#7A4E24" stroke-width="3" stroke-linejoin="round"><path d="M86.0,206 A66,40 0 0 0 218.0,206 Z" fill="#C08B52"/><rect x="105.0" y="215" width="34" height="10" rx="5" fill="#D6A169"/><rect x="141.0" y="213" width="38" height="10" rx="5" fill="#D6A169"/><rect x="126.0" y="228" width="40" height="10" rx="5" fill="#D6A169"/><rect x="172.0" y="222" width="28" height="10" rx="5" fill="#D6A169"/><rect x="101.0" y="226" width="22" height="10" rx="5" fill="#D6A169"/><path d="M86.0,206 A66,13 0 0 0 218.0,206" fill="none"/></g>
<g transform="translate(232,226) scale(0.95)" stroke-linejoin="round" stroke-linecap="round"><rect x="-16" y="4" width="32" height="8" rx="4" fill="#A9743F" stroke="#7A4E24" stroke-width="2.4"/><path d="M0,-22 C7,-11 13,-7 10,1 C7,8 3,10 0,10 C-3,10 -7,8 -10,1 C-13,-7 -7,-11 0,-22 Z" fill="#FF8A3D" stroke="#D9561F" stroke-width="2.6"/><path d="M0,-11 C4,-5 6,-3 5,1 C3,6 1,6 0,6 C-1,6 -3,6 -5,1 C-6,-3 -4,-5 0,-11 Z" fill="#FFD34E"/></g>
</g>
<rect x="24" y="56" width="256" height="206" rx="16" fill="none" stroke="#E2E2E2" stroke-width="1.5"/>
<text class="n" x="26" y="288">동굴 둥지</text><text class="p" x="278" y="288" text-anchor="end">기본</text>
<g clip-path="url(#cp1)"><rect x="298" y="56" width="256" height="206" fill="url(#bg1)"/>
<circle cx="506" cy="88" r="19" fill="#FFF3B0" opacity=".6"/>
<path d="M298,238 Q426.0,222 554,238 L554,262 L298,262 Z" fill="#000" opacity=".22"/>
<g transform="translate(342,216) scale(1.0)" stroke-linejoin="round" stroke-linecap="round"><rect x="-5" y="-4" width="10" height="18" rx="4" fill="#A9743F" stroke="#7A4E24" stroke-width="2.4"/><circle cx="0" cy="-20" r="16" fill="#69C45C" stroke="#2F8C38" stroke-width="2.6"/><circle cx="-11" cy="-10" r="10" fill="#7FD070" stroke="#2F8C38" stroke-width="2.6"/><circle cx="11" cy="-10" r="10" fill="#7FD070" stroke="#2F8C38" stroke-width="2.6"/></g>
<ellipse cx="426.0" cy="206" rx="66" ry="13" fill="#8A5C2E"/>
<g transform="translate(380.0,114) scale(0.92)"><g stroke="#2F8C38" stroke-width="3.2" stroke-linejoin="round" stroke-linecap="round"><path transform="translate(50,56) scale(-1,1)" d="M14,4 Q22,-22 44,-16 Q40,-6 45,2 Q36,0 32,8 Q24,4 14,4 Z" fill="#4FBF54" opacity=".9"/><path transform="translate(50,56) scale(1,1)" d="M14,4 Q22,-22 44,-16 Q40,-6 45,2 Q36,0 32,8 Q24,4 14,4 Z" fill="#4FBF54" opacity=".9"/><path d="M66 86 Q86 86 90 70 Q91 64 86 62" fill="none"/><path transform="translate(86,62)" d="M0,0 l8,-7 l2,11 z" fill="#4FBF54"/><ellipse cx="38" cy="95" rx="10" ry="6.5" fill="#84D96F"/><ellipse cx="62" cy="95" rx="10" ry="6.5" fill="#84D96F"/><ellipse cx="50" cy="75" rx="25" ry="22" fill="#84D96F"/><ellipse cx="50" cy="79" rx="16" ry="14" fill="#E3F8DC" stroke-width="2.2"/><ellipse cx="27" cy="74" rx="8" ry="7" fill="#84D96F"/><ellipse cx="73" cy="74" rx="8" ry="7" fill="#84D96F"/><path d="M37 19 q-3 -10 4 -12 q1 7 4 10 z" fill="#84D96F"/><path d="M63 19 q3 -10 -4 -12 q-1 7 -4 10 z" fill="#84D96F"/><circle cx="50" cy="40" r="26" fill="#84D96F"/><path d="M34 17 l5 -12 l6 8 l5 -13 l5 13 l6 -8 l5 12 z" fill="#FFD34E" stroke="#C9910F" stroke-width="2.6"/><g stroke="none"><ellipse cx="41" cy="41" rx="4" ry="4.5" fill="#2B2B2B"/><circle cx="39.6" cy="39.2" r="1.5" fill="#fff"/><ellipse cx="59" cy="41" rx="4" ry="4.5" fill="#2B2B2B"/><circle cx="57.6" cy="39.2" r="1.5" fill="#fff"/><ellipse cx="32" cy="49" rx="5" ry="3" fill="#4FBF54" opacity=".42"/><ellipse cx="68" cy="49" rx="5" ry="3" fill="#4FBF54" opacity=".42"/></g><path d="M45 51 q5 5 10 0" fill="none" stroke="#2B2B2B" stroke-width="2.4"/></g></g>
<g stroke="#7A4E24" stroke-width="3" stroke-linejoin="round"><path d="M360.0,206 A66,40 0 0 0 492.0,206 Z" fill="#C08B52"/><rect x="379.0" y="215" width="34" height="10" rx="5" fill="#D6A169"/><rect x="415.0" y="213" width="38" height="10" rx="5" fill="#D6A169"/><rect x="400.0" y="228" width="40" height="10" rx="5" fill="#D6A169"/><rect x="446.0" y="222" width="28" height="10" rx="5" fill="#D6A169"/><rect x="375.0" y="226" width="22" height="10" rx="5" fill="#D6A169"/><path d="M360.0,206 A66,13 0 0 0 492.0,206" fill="none"/></g>
<g transform="translate(508,230) scale(1.0)" stroke-linejoin="round" stroke-linecap="round"><rect x="-5" y="-2" width="10" height="14" rx="5" fill="#FFF0D8" stroke="#C99A5B" stroke-width="2.4"/><path d="M-18,-2 Q-18,-20 0,-20 Q18,-20 18,-2 Z" fill="#FF6B6B" stroke="#C0392B" stroke-width="2.6"/><circle cx="-7" cy="-9" r="3.2" fill="#fff"/><circle cx="6" cy="-12" r="2.6" fill="#fff"/></g>
<g transform="translate(484,238) scale(0.65)" stroke-linejoin="round" stroke-linecap="round"><path d="M-20,10 Q-24,-6 -8,-13 Q6,-18 17,-7 Q24,2 19,10 Z" fill="#A8A8A8" stroke="#6F6F6F" stroke-width="2.6"/><path d="M-14,-6 q7,-5 14,-2 q-4,5 -14,2 Z" fill="#7BC46A"/></g>
</g>
<rect x="298" y="56" width="256" height="206" rx="16" fill="none" stroke="#E2E2E2" stroke-width="1.5"/>
<text class="n" x="300" y="288">숲속 둥지</text><text class="p" x="552" y="288" text-anchor="end">200 로그</text>
<g clip-path="url(#cp2)"><rect x="572" y="56" width="256" height="206" fill="url(#bg2)"/>
<circle cx="612" cy="86" r="2.2" fill="#fff" opacity=".85"/>
<circle cx="668" cy="72" r="1.6" fill="#fff" opacity=".85"/>
<circle cx="722" cy="94" r="2" fill="#fff" opacity=".85"/>
<circle cx="770" cy="76" r="1.8" fill="#fff" opacity=".85"/>
<circle cx="800" cy="108" r="1.4" fill="#fff" opacity=".85"/>
<circle cx="642" cy="118" r="1.5" fill="#fff" opacity=".85"/>
<path d="M572,238 Q700.0,222 828,238 L828,262 L572,262 Z" fill="#000" opacity=".22"/>
<g transform="translate(614,222) scale(0.95)" stroke-linejoin="round" stroke-linecap="round"><path d="M-9,10 L-15,-9.0 L-9,-18 L-3,-9.0 Z" fill="#8FD8FF" stroke="#2E86C4" stroke-width="2.4"/><path d="M4,10 L-2,-14.0 L4,-28 L10,-14.0 Z" fill="#B9ECFF" stroke="#2E86C4" stroke-width="2.4"/><path d="M14,10 L8,-7.0 L14,-14 L20,-7.0 Z" fill="#8FD8FF" stroke="#2E86C4" stroke-width="2.4"/></g>
<ellipse cx="700.0" cy="206" rx="66" ry="13" fill="#8A5C2E"/>
<g transform="translate(654.0,114) scale(0.92)"><g stroke="#6B3FC7" stroke-width="3.2" stroke-linejoin="round" stroke-linecap="round"><path transform="translate(50,56) scale(-1,1)" d="M14,4 Q22,-22 44,-16 Q40,-6 45,2 Q36,0 32,8 Q24,4 14,4 Z" fill="#9B6BFF" opacity=".9"/><path transform="translate(50,56) scale(1,1)" d="M14,4 Q22,-22 44,-16 Q40,-6 45,2 Q36,0 32,8 Q24,4 14,4 Z" fill="#9B6BFF" opacity=".9"/><path d="M66 86 Q86 86 90 70 Q91 64 86 62" fill="none"/><path transform="translate(86,62)" d="M0,0 l8,-7 l2,11 z" fill="#9B6BFF"/><ellipse cx="38" cy="95" rx="10" ry="6.5" fill="#C29AFF"/><ellipse cx="62" cy="95" rx="10" ry="6.5" fill="#C29AFF"/><ellipse cx="50" cy="75" rx="25" ry="22" fill="#C29AFF"/><ellipse cx="50" cy="79" rx="16" ry="14" fill="#F0E5FF" stroke-width="2.2"/><ellipse cx="27" cy="74" rx="8" ry="7" fill="#C29AFF"/><ellipse cx="73" cy="74" rx="8" ry="7" fill="#C29AFF"/><path d="M37 19 q-3 -10 4 -12 q1 7 4 10 z" fill="#C29AFF"/><path d="M63 19 q3 -10 -4 -12 q-1 7 -4 10 z" fill="#C29AFF"/><circle cx="50" cy="40" r="26" fill="#C29AFF"/><path d="M34 17 l5 -12 l6 8 l5 -13 l5 13 l6 -8 l5 12 z" fill="#FFD34E" stroke="#C9910F" stroke-width="2.6"/><g stroke="none"><ellipse cx="41" cy="41" rx="4" ry="4.5" fill="#2B2B2B"/><circle cx="39.6" cy="39.2" r="1.5" fill="#fff"/><ellipse cx="59" cy="41" rx="4" ry="4.5" fill="#2B2B2B"/><circle cx="57.6" cy="39.2" r="1.5" fill="#fff"/><ellipse cx="32" cy="49" rx="5" ry="3" fill="#9B6BFF" opacity=".42"/><ellipse cx="68" cy="49" rx="5" ry="3" fill="#9B6BFF" opacity=".42"/></g><path d="M45 51 q5 5 10 0" fill="none" stroke="#2B2B2B" stroke-width="2.4"/></g></g>
<g stroke="#7A4E24" stroke-width="3" stroke-linejoin="round"><path d="M634.0,206 A66,40 0 0 0 766.0,206 Z" fill="#C08B52"/><rect x="653.0" y="215" width="34" height="10" rx="5" fill="#D6A169"/><rect x="689.0" y="213" width="38" height="10" rx="5" fill="#D6A169"/><rect x="674.0" y="228" width="40" height="10" rx="5" fill="#D6A169"/><rect x="720.0" y="222" width="28" height="10" rx="5" fill="#D6A169"/><rect x="649.0" y="226" width="22" height="10" rx="5" fill="#D6A169"/><path d="M634.0,206 A66,13 0 0 0 766.0,206" fill="none"/></g>
<g transform="translate(784,224) scale(1.0)" stroke-linejoin="round" stroke-linecap="round"><path d="M0,-28 q11,2 9,11" fill="none" stroke="#C9910F" stroke-width="2.4"/><rect x="-9" y="-17" width="18" height="24" rx="8" fill="#FFD65C" stroke="#C9910F" stroke-width="2.6"/><circle cx="0" cy="-5" r="5" fill="#FFF4CE"/></g>
<g transform="translate(764,242) scale(0.7)" stroke-linejoin="round" stroke-linecap="round"><rect x="-17" y="-4" width="34" height="16" rx="4" fill="#C08B52" stroke="#7A4E24" stroke-width="2.6"/><path d="M-17,-4 Q0,-21 17,-4 Z" fill="#D6A169" stroke="#7A4E24" stroke-width="2.6"/><rect x="-4" y="-1" width="8" height="9" rx="2" fill="#FFD34E" stroke="#C9910F" stroke-width="2"/></g>
</g>
<rect x="572" y="56" width="256" height="206" rx="16" fill="none" stroke="#E2E2E2" stroke-width="1.5"/>
<text class="n" x="574" y="288">은하수 둥지</text><text class="p" x="826" y="288" text-anchor="end">1,500 로그</text>
</svg>